<?xml version="1.0" standalone="no"?><svg xmlns="http://www.w3.org/2000/svg" viewBox="0 0 1440 320"><path fill="#212529" fill-opacity="1" d="M0,128L14.1,149.3C28.2,171,56,213,85,234.7C112.9,256,141,256,169,234.7C197.6,213,226,171,254,149.3C282.4,128,311,128,339,149.3C367.1,171,395,213,424,218.7C451.8,224,480,192,508,176C536.5,160,565,160,593,149.3C621.2,139,649,117,678,138.7C705.9,160,734,224,762,240C790.6,256,819,224,847,176C875.3,128,904,64,932,42.7C960,21,988,43,1016,85.3C1044.7,128,1073,192,1101,202.7C1129.4,213,1158,171,1186,181.3C1214.1,192,1242,256,1271,250.7C1298.8,245,1327,171,1355,117.3C1383.5,64,1412,32,1426,16L1440,0L1440,320L1425.9,320C1411.8,320,1384,320,1355,320C1327.1,320,1299,320,1271,320C1242.4,320,1214,320,1186,320C1157.6,320,1129,320,1101,320C1072.9,320,1045,320,1016,320C988.2,320,960,320,932,320C903.5,320,875,320,847,320C818.8,320,791,320,762,320C734.1,320,706,320,678,320C649.4,320,621,320,593,320C564.7,320,536,320,508,320C480,320,452,320,424,320C395.3,320,367,320,339,320C310.6,320,282,320,254,320C225.9,320,198,320,169,320C141.2,320,113,320,85,320C56.5,320,28,320,14,320L0,320Z"></path></svg>